<svg xmlns="http://www.w3.org/2000/svg" xmlns:xlink="http://www.w3.org/1999/xlink" version="1.1" x="0px" y="0px" viewBox="0 0 64 64" enable-background="new 0 0 64 64" xml:space="preserve"><g><path fill="#000000" d="M14.6,48.2C14.6,48.2,14.6,48.2,14.6,48.2c4.8,0,9.5,0,14.2,0c0,0,0,0,0,0c4.8,0,9.7,0,14.5,0   c0.8,0,1.1-0.2,1.1-1.1c0-4,0-8,0-12c0-0.9-0.3-1.2-1.2-1.2c-1.8,0.1-3.5,0.1-5.3,0.1c-7.9,0-15.8,0-23.7,0c-0.6,0-1.2,0.3-1.7,0.7   c-2,1.9-3.8,3.8-5.8,5.7c-0.6,0.5-0.6,0.9,0,1.5c1.9,1.8,3.7,3.6,5.5,5.5C13.1,48,13.8,48.2,14.6,48.2 M14.6,45.9   c-0.3,0-0.3,0-0.4-0.2c-1.5-1.5-3-3.1-4.6-4.6c0.5-0.5,1-1,1.5-1.5c1.1-1.1,2.2-2.2,3.2-3.2c0,0,0.1,0,0.1-0.1c5.6,0,11.2,0,16.8,0   l7.4,0c1,0,2.2,0,3.5,0c0,3.2,0,6.4,0,9.5c-2,0-4.1,0-6.1,0l-9.3,0l-5.2,0C19.3,45.9,16.9,45.9,14.6,45.9"></path><path fill="#000000" d="M57,17.2c-1.9-1.9-3.8-3.8-5.7-5.6c-0.4-0.4-1-0.6-1.5-0.6c-9.7,0-19.3,0-28.9,0c-0.4,0-0.8,0-1.2,0.1v13.9   c0.4,0,0.7,0,1,0.1c9.7,0,19.4,0,29.1,0c0.5,0,1.2-0.3,1.5-0.7c1.9-1.8,3.8-3.8,5.7-5.6C57.5,18.1,57.6,17.8,57,17.2z M52.8,19.5   c-1,1-2.1,2.1-3.1,3.1c0,0,0,0-0.1,0c-6,0-11.9,0-17.9,0H22v-9.4h8.6c6.4,0,12.7,0,19.1,0c1,1,2,2,3.1,3c0.5,0.5,1.1,1.1,1.6,1.6   C53.9,18.4,53.4,19,52.8,19.5z"></path><path fill="#000000" d="M27,8.2l0-1.2c0-0.5,0-0.9,0-1.3V5.2c0-0.9,0.3-1.8,1-2.5c0.7-0.7,1.5-1,2.5-1h3.5c0.9,0,1.8,0.4,2.5,1   c0.6,0.6,1,1.5,1,2.5l0,0.5c0,0.7,0,1.5,0,2.4H35c0-1,0-1.8,0-2.5l0-0.5C35,5,35,4.7,34.7,4.4c-0.2-0.2-0.5-0.3-0.8-0.3h-3.5   c-0.3,0-0.6,0.1-0.8,0.3c-0.2,0.2-0.3,0.5-0.3,0.8v0.5c0,0.4,0,0.8,0,1.3l0,1.2L27,8.2z"></path><path fill="#000000" d="M35.3,31.4c-0.1-1.2-0.1-2.5-0.1-3.7l2.3-0.1c0,1.2,0.1,2.4,0.1,3.7L35.3,31.4z"></path><path fill="#000000" d="M29,31.4l-2.3-0.1c0.1-1.2,0.1-2.4,0.1-3.6l2.3,0.1C29.1,28.9,29,30.1,29,31.4z"></path><path fill="#000000" d="M37.9,62.3H26.3c-1.1,0-2.1-0.5-2.8-1.4c-0.7-0.9-0.9-2-0.5-3.1c0.5-1.8,1.1-4.4,1.2-4.9l0-0.2   c0.2-0.6,0.3-1.3,0.4-2.1l2.3,0.5c-0.2,0.8-0.3,1.5-0.5,2.2l0,0c-0.1,0.9-0.7,3.6-1.2,5.2c-0.1,0.3,0,0.7,0.2,1   c0.2,0.3,0.5,0.4,0.9,0.4h11.6c0.4,0,0.7-0.2,0.9-0.4c0.2-0.3,0.3-0.6,0.2-1c-0.5-1.8-1.1-4.6-1.2-5.3c-0.2-0.6-0.3-1.3-0.5-2.1   l2.3-0.4c0.1,0.7,0.3,1.4,0.4,2l0,0.2c0,0.1,0.6,3,1.2,5c0.3,1.1,0.1,2.2-0.5,3.1C40.1,61.8,39,62.3,37.9,62.3z"></path></g></svg>