<svg xmlns="http://www.w3.org/2000/svg" data-name="Layer 1" viewBox="0 0 100 100" x="0px" y="0px"><title>Artboard 221</title><path d="M72.81,22A28,28,0,0,0,18,30v.4A20,20,0,0,0,22,70H34a4,4,0,0,0,0-8H22a12,12,0,0,1-.19-24l.49,0a4.3,4.3,0,0,0,3.1-1.4,4,4,0,0,0,.91-3.27,20,20,0,1,1,39.45-6.3,4,4,0,0,0,4.81,3.32A16.19,16.19,0,0,1,74,30a16,16,0,0,1,0,32H66a4,4,0,0,0,0,8h8a24,24,0,1,0-1.19-48Z"></path><path d="M50,46a4,4,0,0,0-4,4V84.34l-5.17-5.17a4,4,0,0,0-5.66,5.66l12,12a4,4,0,0,0,5.66,0l12-12a4,4,0,0,0-5.66-5.66L54,84.34V50A4,4,0,0,0,50,46Z"></path></svg>