<svg xmlns="http://www.w3.org/2000/svg" xmlns:xlink="http://www.w3.org/1999/xlink" version="1.1" x="0px" y="0px" viewBox="0 0 64 64" enable-background="new 0 0 64 64" xml:space="preserve"><path fill="#000000" d="M59.1,46.8c-1-0.6-2.1-0.9-3.2-0.9c-1.7,0-3.4,0.8-4.5,2.1l-11.9-7.5l0,0.1c-0.1-1.8-0.9-3.5-2.2-4.8  l6.3-8.2c0.9,0.4,1.8,0.7,2.7,0.7c1.8,0,3.5-0.8,4.7-2.3c2-2.6,1.6-6.3-1-8.4c-1-0.8-2.4-1.3-3.7-1.3c-1.8,0-3.5,0.8-4.7,2.3  c-1,1.2-1.4,2.8-1.2,4.4c0.1,1.1,0.6,2.1,1.3,3l-6.4,8.3c-1.4-0.8-2.9-1.1-4.5-0.9c-0.1,0-0.3,0-0.4,0.1c-0.1,0-0.2,0-0.2,0  l-5.9-16.1c2.5-1.4,3.7-4.4,2.8-7.1c-0.8-2.4-3.1-4-5.6-4c-0.7,0-1.3,0.1-1.9,0.3c-1.5,0.5-2.7,1.6-3.4,3c-0.7,1.4-0.8,3.1-0.3,4.6  c0.8,2.4,3.1,4,5.6,4c0.2,0,0.3,0,0.5,0l5.9,16.2c-2.5,1.4-4.1,4-4.1,6.9c0,0.5,0.1,1.1,0.2,1.6l-11,4.8c-0.1-0.1-0.1-0.2-0.2-0.3  c-0.2-0.2-0.3-0.4-0.5-0.5c-0.3-0.3-0.6-0.5-0.9-0.7c-0.2-0.1-0.3-0.2-0.5-0.3C10.1,45.2,9.1,45,8.1,45c-0.8,0-1.5,0.2-2.2,0.4  c-1.5,0.6-2.6,1.7-3.2,3.2c-0.6,1.5-0.6,3.1,0,4.6c0.9,2.3,3.1,3.7,5.5,3.7c0.8,0,1.5-0.2,2.2-0.4c2.2-0.9,3.6-3,3.7-5.3  c0-0.1,0-0.2,0-0.2c0-0.2,0-0.3,0-0.5c0,0,0-0.1,0-0.2c0-0.1,0-0.3-0.1-0.4L24.8,45c1.4,2.4,4,4,6.8,4c1.6,0,3.2-0.5,4.4-1.4  c0.1-0.1,0.3-0.2,0.4-0.3c0.1-0.1,0.3-0.2,0.4-0.4c0.1-0.1,0.2-0.1,0.2-0.2c0.1-0.1,0.2-0.2,0.3-0.3c0.2-0.2,0.3-0.4,0.5-0.6  c0.2-0.2,0.3-0.4,0.4-0.6c0.1-0.1,0.1-0.2,0.2-0.3c0.3-0.5,0.5-1.1,0.7-1.7l11.1,6.9c0,0.1,0,0.1-0.1,0.2c-0.7,2.5,0.3,5.2,2.5,6.6  c1,0.6,2.1,0.9,3.2,0.9c2.1,0,3.9-1,5-2.8C62.7,52.3,61.8,48.6,59.1,46.8z M8.2,54.4c-2,0-3.5-1.6-3.5-3.5c0-2,1.6-3.5,3.5-3.5  c1.4,0,2.7,0.9,3.2,2.1l0,0.1c0.2,0.4,0.3,0.9,0.3,1.3C11.7,52.9,10.1,54.4,8.2,54.4z M46.3,18.7c1.9,0,3.5,1.6,3.5,3.5  s-1.6,3.5-3.5,3.5c-2,0-3.5-1.6-3.5-3.5S44.3,18.7,46.3,18.7z M17.9,12.1c0-2,1.6-3.5,3.5-3.5c1.9,0,3.5,1.6,3.5,3.5  c0,2-1.6,3.5-3.5,3.5C19.5,15.7,17.9,14.1,17.9,12.1z M31.6,46.7c-3,0-5.5-2.5-5.5-5.5c0-3,2.5-5.5,5.5-5.5c3,0,5.5,2.5,5.5,5.5  C37.1,44.2,34.6,46.7,31.6,46.7z M55.9,55.4c-2,0-3.5-1.6-3.5-3.5c0-2,1.6-3.5,3.5-3.5c1.9,0,3.5,1.6,3.5,3.5  C59.4,53.8,57.8,55.4,55.9,55.4z"></path></svg>