<svg xmlns="http://www.w3.org/2000/svg" xmlns:xlink="http://www.w3.org/1999/xlink" version="1.1" x="0px" y="0px" viewBox="0 0 64 64" enable-background="new 0 0 64 64" xml:space="preserve"><g><path fill="#000000" d="M63.1,7.2c-0.1-2-1-3.8-2.6-4.9c-1.2-0.9-2.5-1.3-4-1.3h-0.4c-1.4,0-2.6,0-3.9,0l-0.2,0c-1.1,0-2.2,0-3.2,0   c-2,0-4.6,0-6.3,0l-0.1,0c-3.1,0-6.5,2.5-6.5,6.5v17.6c0,1.1,0.9,2,2,2c0.5,0,1-0.2,1.4-0.6l0.9-0.9c0.9-0.9,2-2,2.8-2.8   c2,0,4.9,0,6.9,0c0.5,0,0.9,0,1.4,0c1.7,0.1,2.9,0,4.2-0.4c2.1-0.6,4-1.9,5.3-3.7c0.6-0.8,1.1-1.7,1.5-2.6   C63.2,14,63.2,9.6,63.1,7.2z M42.4,3.2c1.8,0,4.4,0,6.4,0c1.1,0,2.2,0,3.3,0l0.2,0c1.2,0,2.5,0,3.9,0h0.4c0.9,0,1.8,0.3,2.6,0.9   c1,0.8,1.6,1.9,1.6,3.2c0.1,3.8-0.1,6.7-0.6,7.9c-0.3,0.7-0.7,1.4-1.2,2c-1.1,1.4-2.6,2.4-4.2,2.9c-0.9,0.3-1.6,0.4-2.5,0.4   c-0.3,0-0.7,0-1.1,0c-0.5,0-0.9,0-1.5,0c-2.1,0-5.2,0-7.3,0c-0.3,0-0.7,0.2-1,0.4l-0.1,0.1c-0.6,0.6-1.6,1.6-2.5,2.5L38.3,24V7.3   C38.3,4.8,40.5,3.2,42.4,3.2z"></path><path fill="#000000" d="M59.2,23.3c-0.7,0.4-1.5,0.8-2.2,1.1c0.8,2.4,1.3,4.9,1.4,7.6H48.3c0-2.3-0.2-4.6-0.5-6.9h-2.5   c0.3,2.2,0.4,4.5,0.5,6.9H32.1V21.5c0.5,0,1,0,1.4,0V19c-0.5,0-0.9,0-1.4,0V5.6c0.5,0,1,0.1,1.6,0.1c0.2-0.9,0.4-1.7,0.8-2.4   c-1.2-0.1-2.4-0.2-3.6-0.2c-16.5,0-30,13.5-30,30c0,16.5,13.5,30,30,30s30-13.5,30-30C60.9,29.7,60.3,26.4,59.2,23.3z M18.6,8.5   c-1.3,2.5-2.3,5.3-3.2,8.4c-1.8-0.6-3.6-1.3-5.2-2C12.7,12.2,15.5,10,18.6,8.5z M8.7,16.7c1.9,1,4,1.8,6.2,2.5   c-0.9,4-1.4,8.3-1.5,12.7H3.3C3.6,26.2,5.5,21,8.7,16.7z M8.5,49.3c-3.1-4.2-5-9.4-5.2-14.9h10.1c0.1,4.3,0.6,8.5,1.4,12.4   C12.6,47.4,10.5,48.3,8.5,49.3z M10.1,51.2c1.6-0.8,3.4-1.5,5.3-2.1c0.8,3.2,1.9,6.2,3.2,8.7C15.4,56.2,12.5,54,10.1,51.2z    M29.6,60.7c-2.5-0.1-5-0.6-7.3-1.3c-1.9-2.9-3.5-6.6-4.6-10.9c3.8-1,7.8-1.5,11.9-1.6V60.7z M29.6,44.4c-4.3,0.1-8.5,0.6-12.5,1.7   c-0.8-3.7-1.2-7.6-1.3-11.7h13.8V44.4z M29.6,31.9H15.9c0.1-4.2,0.5-8.3,1.4-12.1c3.9,1,8.1,1.6,12.4,1.7V31.9z M29.6,19.1   c-4.1-0.1-8.1-0.6-11.8-1.6c1.1-4.1,2.6-7.7,4.5-10.6c2.3-0.7,4.7-1.2,7.3-1.3V19.1z M32.1,34.4h13.8c-0.1,4.1-0.5,8-1.3,11.7   c-4-1-8.1-1.6-12.5-1.7V34.4z M32.1,60.7V46.8c4.1,0.1,8.1,0.6,11.9,1.6c-1.1,4.3-2.7,8-4.6,10.9C37.1,60.1,34.6,60.6,32.1,60.7z    M43.1,57.8c1.3-2.6,2.4-5.5,3.2-8.7c1.9,0.6,3.6,1.3,5.3,2.1C49.2,54,46.3,56.2,43.1,57.8z M53.2,49.3c-1.9-1-4-1.8-6.3-2.5   c0.8-3.9,1.3-8.1,1.4-12.4h10.1C58.1,39.9,56.2,45.1,53.2,49.3z"></path></g></svg>