<svg xmlns="http://www.w3.org/2000/svg" xmlns:xlink="http://www.w3.org/1999/xlink" version="1.1" x="0px" y="0px" viewBox="0 0 64 64" enable-background="new 0 0 64 64" xml:space="preserve"><g><path fill="#000000" d="M40.7,32.3c0,0-5-8.8-6.9-12.1c-0.7-1.2-1.6-1.4-2-1.4c-0.8,0-1.5,0.4-2,1.2c-0.1,0.1-0.1,0.2-0.2,0.3   l-3.9,6.2c-0.5,0.8-0.8,0.9-0.8,0.9c0,0-0.1,0-0.2-0.1c-0.2-0.1-0.5-0.4-0.7-0.6c-0.7-0.6-1.6-1.6-3.1-1.6c-1.4,0-2.8,0.8-3.7,2.1   c-0.3,0.4-3.1,4.3-3.7,5.1c-0.4,0.5-0.3,1.3,0.2,1.8c0.3,0.2,0.6,0.3,0.8,0.3c0.2,0,0.6-0.1,1-0.5c0.6-0.8,3.5-4.8,3.8-5.2   c0.5-0.7,1-1,1.6-1c0.4,0,0.8,0.3,1.4,0.9c0.3,0.3,0.7,0.7,1.2,1c0.5,0.3,0.9,0.4,1.4,0.4c1.5,0,2.5-1.5,2.9-2.1l3.9-6.2l0,0   c1.8,3.2,6.8,11.8,6.8,11.8c0.3,0.6,1.1,0.8,1.7,0.5c0.3-0.2,0.5-0.4,0.6-0.7C40.9,33,40.9,32.6,40.7,32.3z"></path><path fill="#000000" d="M25.1,12c-0.4-0.4-0.9-0.8-1.5-1c-0.6-0.2-1.2-0.4-1.8-0.4c-2.5,0-4.6,2.1-4.6,4.6c0,1.2,0.5,2.4,1.4,3.3   c0.9,0.9,2,1.4,3.3,1.4h0c2.5,0,4.6-2.1,4.6-4.6C26.5,14,26,12.9,25.1,12z M24.3,15.3c0,1.4-1.1,2.4-2.4,2.4   c-0.7,0-1.3-0.3-1.7-0.7c-0.5-0.5-0.7-1.1-0.7-1.7c0-1.3,1.1-2.4,2.5-2.4c0.6,0,1.2,0.3,1.7,0.7C24,14,24.3,14.6,24.3,15.3z    M21.9,19.8L21.9,19.8L21.9,19.8L21.9,19.8z"></path><path fill="#000000" d="M40.1,48.8c0,0.3,0.1,0.6,0.3,0.9l8.7,10.1c1.4,1.6,3.4,2.6,5.3,2.6c0.1,0,0.2,0,0.4,0   c1.1-0.1,2.1-0.5,2.8-1.1l0.9-0.8c1.1-1,1.7-2.5,1.7-4.1c-0.1-1.6-0.7-3.2-1.8-4.5l-8.7-10.1c-0.3-0.4-1.3-0.5-1.7-0.1   c-0.3,0.2-0.4,0.5-0.4,0.8c0,0.3,0.1,0.7,0.3,0.9l8.7,10.1c0.7,0.9,1.2,1.9,1.2,3c0,0.5-0.1,1.5-0.8,2.1L56,59.4   c-0.4,0.3-0.8,0.5-1.4,0.5c-1.2,0.1-2.6-0.6-3.6-1.8l-8.7-10.1c-0.2-0.3-0.6-0.4-1-0.4l-0.1,0c-0.3,0-0.5,0.1-0.7,0.3   C40.3,48.2,40.1,48.5,40.1,48.8z"></path><path fill="#000000" d="M27,48.1c-12.2,0-22.4-9.6-23.2-21.8C3,13.5,12.7,2.4,25.6,1.6c12.9-0.8,23.9,9,24.7,21.7   c0.8,12.8-8.9,23.9-21.7,24.7C28.1,48.1,27.6,48.1,27,48.1z M27.1,4.1c-0.5,0-0.9,0-1.4,0c-11.4,0.7-20,10.6-19.3,22   c0.7,11.3,10.5,20,22,19.3c11.4-0.7,20-10.6,19.3-22C47,12.6,37.9,4.1,27.1,4.1z"></path></g></svg>