<svg xmlns="http://www.w3.org/2000/svg" xmlns:xlink="http://www.w3.org/1999/xlink" version="1.1" x="0px" y="0px" viewBox="0 0 64 64" enable-background="new 0 0 64 64" xml:space="preserve"><g><path fill="#000000" d="M31.2,2c-16.5,0-30,13.5-30,30c0,16.5,13.5,30,30,30c6.9,0,13.3-2.3,18.3-6.3l-1.3-1.5   C48.1,54.1,48,54,48,53.9c-1.4,1.1-2.9,2-4.5,2.8c0.6-1.1,1.1-2.4,1.6-3.7c-0.4,0.1-0.7,0.1-1.1,0.1c-0.3,0-0.6,0-0.9,0h-0.1   c-0.2,0-0.4,0-0.5,0c-0.8,1.9-1.7,3.6-2.7,5c-2.3,0.8-4.8,1.2-7.3,1.3v-11c-1.4-1.5-2.4-3.3-3-5.2c-4.1,0.1-8.1,0.7-11.9,1.7   c-0.8-3.7-1.2-7.6-1.3-11.7H30v0.1c0.6-1.4,1.4-2.6,2.4-3.8v-9.2c4.3-0.1,8.5-0.6,12.4-1.7c0.5,2.1,0.8,4.2,1,6.5   c0.9,0.2,1.7,0.5,2.5,0.8c-0.2-2.7-0.6-5.4-1.2-7.9c2.2-0.7,4.3-1.5,6.2-2.5c3.2,4.3,5.2,9.5,5.4,15.2h-4.3c0.6,0.8,1,1.6,1.4,2.4   h2.9c-0.1,3.4-0.9,6.7-2.2,9.6c-0.2,0.9-0.6,1.7-1,2.5c0.7,0.2,1.3,0.5,1.7,1l0.2,0.2c2.4-4.3,3.8-9.3,3.8-14.6   C61.2,15.5,47.7,2,31.2,2z M9.1,15.6c1.9,1,4,1.8,6.2,2.5c-0.9,4-1.4,8.3-1.5,12.7H3.7C3.9,25.1,5.9,19.9,9.1,15.6z M8.9,48.1   c-3.1-4.2-5-9.4-5.2-14.9h10.1c0.1,4.3,0.6,8.5,1.4,12.4C12.9,46.3,10.8,47.1,8.9,48.1z M30,45.7v13.8c-2.5-0.1-5-0.6-7.3-1.3   c-1.9-2.9-3.5-6.6-4.6-10.9C21.8,46.3,25.8,45.8,30,45.7z M19,56.7c-3.3-1.6-6.2-3.9-8.5-6.6c1.6-0.8,3.4-1.5,5.3-2.1   C16.6,51.2,17.7,54.1,19,56.7z M15.8,15.7c-1.8-0.6-3.6-1.3-5.2-2C13,11,15.8,8.9,19,7.3C17.7,9.8,16.7,12.6,15.8,15.7z M30,30.8   H16.2c0.1-4.2,0.5-8.3,1.4-12.1c3.9,1,8.1,1.6,12.4,1.7V30.8z M30,17.9c-4.1-0.1-8.1-0.6-11.8-1.6c1.1-4.1,2.6-7.7,4.5-10.6   C25,5,27.4,4.6,30,4.5V17.9z M32.4,17.9V4.5c2.5,0.1,5,0.6,7.3,1.3c1.9,2.8,3.4,6.4,4.5,10.6C40.5,17.3,36.5,17.8,32.4,17.9z    M46.6,15.7c-0.8-3.1-1.9-5.9-3.1-8.4c3.2,1.6,6,3.7,8.3,6.3C50.1,14.4,48.4,15.1,46.6,15.7z"></path><path fill="#000000" d="M54.6,38.1c-0.5-6.1-5.6-10.8-11.7-10.8c-0.3,0-0.6,0-0.9,0c-2.5,0.2-4.9,1.2-6.8,2.8   c-2.8,2.4-4.3,6.1-4,9.7c0.5,6.1,5.6,10.8,11.7,10.8l0.1,0c0.3,0,0.5,0,0.8,0c2.5-0.2,4.9-1.2,6.8-2.8   C53.4,45.5,54.9,41.8,54.6,38.1z M42.9,48.4c-4.8,0-8.9-3.8-9.3-8.6c-0.2-2.9,1-5.8,3.2-7.8c1.5-1.3,3.4-2.1,5.4-2.2   c0.2,0,0.5,0,0.7,0c4.9,0,8.9,3.8,9.3,8.6c0.2,2.9-1,5.8-3.2,7.8c-1.5,1.3-3.4,2.1-5.4,2.2C43.4,48.3,43.2,48.4,42.9,48.4   L42.9,48.4z"></path><path fill="#000000" d="M55.4,48c-0.3-0.4-1.1-0.4-1.5-0.1c-0.2,0.2-0.4,0.5-0.4,0.7c0,0.3,0.1,0.6,0.3,0.8l6.3,7.2   c0.3,0.4,0.5,0.8,0.5,1.2c0,0.2,0,0.5-0.3,0.8L59.9,59c-0.1,0.1-0.3,0.2-0.5,0.2c-0.5,0-1.1-0.2-1.5-0.7l-6.3-7.2   c-0.2-0.2-0.5-0.4-0.9-0.4c-0.6,0-1,0.5-1,1c0,0.3,0.1,0.6,0.3,0.8l6.3,7.2c0.8,0.9,2,1.5,3.1,1.5c0.1,0,0.1,0,0.2,0   c0.6,0,1.2-0.3,1.7-0.7l-0.3-0.3l0.3,0.3l0.5-0.4c0.7-0.6,1-1.5,1-2.5c-0.1-0.9-0.4-1.8-1.1-2.5L55.4,48z"></path></g></svg>