<svg xmlns="http://www.w3.org/2000/svg" xmlns:xlink="http://www.w3.org/1999/xlink" version="1.1" x="0px" y="0px" viewBox="0 0 64 64" enable-background="new 0 0 64 64" xml:space="preserve"><g><path fill="#000000" d="M56.1,61.9h-4.1c-2.3,0-4.2-1.9-4.2-4.2v-5.4H16.1v5.4c0,2.3-1.9,4.2-4.2,4.2H7.9c-2.3,0-4.2-1.9-4.2-4.2   V6.3c0-2.3,1.9-4.2,4.2-4.2h4.1c2.3,0,4.2,1.9,4.2,4.2v5.4h31.8V6.3c0-2.3,1.9-4.2,4.2-4.2h4.1c2.3,0,4.2,1.9,4.2,4.2v51.5   C60.3,60.1,58.5,61.9,56.1,61.9z M15.7,50h32.6c1,0,1.9,0.9,1.9,1.9v5.8c0,1,0.8,1.9,1.9,1.9h4.1c1,0,1.9-0.8,1.9-1.9V6.3   c0-1-0.8-1.9-1.9-1.9h-4.1c-1,0-1.9,0.8-1.9,1.9v5.8c0,1-0.9,1.9-1.9,1.9H15.7c-1,0-1.9-0.9-1.9-1.9V6.3c0-1-0.8-1.9-1.9-1.9H7.9   C6.8,4.4,6,5.2,6,6.3v51.5c0,1,0.8,1.9,1.9,1.9h4.1c1,0,1.9-0.8,1.9-1.9v-5.8C13.8,50.9,14.6,50,15.7,50z"></path><rect x="8.8" y="46" fill="#000000" width="2.8" height="2.8"></rect><rect x="8.8" y="35.6" fill="#000000" width="2.8" height="2.8"></rect><rect x="8.8" y="25.3" fill="#000000" width="2.8" height="2.8"></rect><rect x="8.8" y="15" fill="#000000" width="2.8" height="2.8"></rect><path fill="#000000" d="M45.2,44.6H18.8c-2.1,0-3.8-1.7-3.8-3.8V23.2c0-2.1,1.7-3.8,3.8-3.8h26.3c2.1,0,3.8,1.7,3.8,3.8v17.6   C49,42.9,47.3,44.6,45.2,44.6z M18.8,21.7c-0.8,0-1.5,0.7-1.5,1.5v17.6c0,0.8,0.7,1.5,1.5,1.5h26.3c0.8,0,1.5-0.7,1.5-1.5V23.2   c0-0.8-0.7-1.5-1.5-1.5H18.8z"></path><rect x="52.5" y="45.9" fill="#000000" width="2.8" height="2.8"></rect><rect x="52.5" y="35.6" fill="#000000" width="2.8" height="2.8"></rect><rect x="52.5" y="25.2" fill="#000000" width="2.8" height="2.8"></rect><rect x="52.5" y="14.9" fill="#000000" width="2.8" height="2.8"></rect></g></svg>