<svg xmlns:dc="http://purl.org/dc/elements/1.1/" xmlns:cc="http://creativecommons.org/ns#" xmlns:rdf="http://www.w3.org/1999/02/22-rdf-syntax-ns#" xmlns:svg="http://www.w3.org/2000/svg" xmlns="http://www.w3.org/2000/svg" xmlns:sodipodi="http://sodipodi.sourceforge.net/DTD/sodipodi-0.dtd" xmlns:inkscape="http://www.inkscape.org/namespaces/inkscape" viewBox="0 0 32 32.000001" version="1.1" x="0px" y="0px"><g transform="translate(0,-1020.3622)"><path style="color:#000000;font-style:normal;font-variant:normal;font-weight:normal;font-stretch:normal;font-size:medium;line-height:normal;font-family:sans-serif;text-indent:0;text-align:start;text-decoration:none;text-decoration-line:none;text-decoration-style:solid;text-decoration-color:#000000;letter-spacing:normal;word-spacing:normal;text-transform:none;direction:ltr;block-progression:tb;writing-mode:lr-tb;baseline-shift:baseline;text-anchor:start;white-space:normal;clip-rule:nonzero;display:inline;overflow:visible;visibility:visible;opacity:1;isolation:auto;mix-blend-mode:normal;color-interpolation:sRGB;color-interpolation-filters:linearRGB;solid-color:#000000;solid-opacity:1;fill:#000000;fill-opacity:1;fill-rule:nonzero;stroke:none;stroke-width:0.99999994;stroke-linecap:round;stroke-linejoin:round;stroke-miterlimit:4;stroke-dasharray:none;stroke-dashoffset:1.29999995;stroke-opacity:1;color-rendering:auto;image-rendering:auto;shape-rendering:auto;text-rendering:auto;enable-background:accumulate" d="M 21 3.5 C 20.177495 3.5 19.5 4.1775 19.5 5 C 19.5 5.8225 20.177495 6.5 21 6.5 C 21.822505 6.5 22.5 5.8225 22.5 5 C 22.5 4.1775 21.822505 3.5 21 3.5 z M 12 4.5 C 11.177495 4.5 10.5 5.1775 10.5 6 C 10.5 6.8225 11.177495 7.5 12 7.5 C 12.822505 7.5 13.5 6.8225 13.5 6 C 13.5 5.1775 12.822505 4.5 12 4.5 z M 21 4.5 C 21.282065 4.5 21.5 4.718 21.5 5 C 21.5 5.2821 21.282065 5.5 21 5.5 C 20.717935 5.5 20.5 5.2821 20.5 5 C 20.5 4.718 20.717935 4.5 21 4.5 z M 12 5.5 C 12.282065 5.5 12.5 5.718 12.5 6 C 12.5 6.2821 12.282065 6.5 12 6.5 C 11.717935 6.5 11.5 6.2821 11.5 6 C 11.5 5.718 11.717935 5.5 12 5.5 z M 17 5.5 C 16.177495 5.5 15.5 6.1775 15.5 7 C 15.5 7.8225 16.177495 8.5 17 8.5 C 17.822505 8.5 18.5 7.8225 18.5 7 C 18.5 6.1775 17.822505 5.5 17 5.5 z M 17 6.5 C 17.282065 6.5 17.5 6.718 17.5 7 C 17.5 7.2821 17.282065 7.5 17 7.5 C 16.717935 7.5 16.5 7.2821 16.5 7 C 16.5 6.718 16.717935 6.5 17 6.5 z M 8.5 10 A 0.50004997 0.50004997 0 0 0 8.1328125 10.841797 L 14.427734 17.617188 L 14.427734 23.820312 A 0.50004997 0.50004997 0 0 0 14.613281 24.208984 L 16.679688 25.888672 A 0.50004997 0.50004997 0 0 0 17.496094 25.509766 L 17.642578 17.619141 L 23.869141 10.839844 A 0.50004997 0.50004997 0 0 0 23.5 10 L 8.5 10 z M 9.6464844 11 L 22.361328 11 L 16.779297 17.082031 A 0.50004997 0.50004997 0 0 0 16.646484 17.412109 L 16.515625 24.466797 L 15.427734 23.583984 L 15.427734 17.421875 A 0.50004997 0.50004997 0 0 0 15.294922 17.080078 L 9.6464844 11 z M 16 27 C 15.177495 27 14.5 27.6775 14.5 28.5 C 14.5 29.3225 15.177495 30 16 30 C 16.822505 30 17.5 29.3225 17.5 28.5 C 17.5 27.6775 16.822505 27 16 27 z M 16 28 C 16.282065 28 16.5 28.218 16.5 28.5 C 16.5 28.7821 16.282065 29 16 29 C 15.717935 29 15.5 28.7821 15.5 28.5 C 15.5 28.218 15.717935 28 16 28 z " transform="translate(0,1020.3622)"></path></g></svg>