<svg xmlns="http://www.w3.org/2000/svg" xmlns:xlink="http://www.w3.org/1999/xlink" version="1.1" x="0px" y="0px" viewBox="0 0 64 64" enable-background="new 0 0 64 64" xml:space="preserve"><g><path fill="#000000" d="M63.1,30.4c-0.3-3.2-2.8-3.7-3.7-3.8c-1.7-0.4-3.4-1.9-4.4-4.2c-0.9-2.2-1-4.3-0.3-5.6   c1.2-1.9,2.1-4.1-0.4-6.5c-1.6-1.5-2.6-2.5-4.3-2.5c-0.9,0-1.9,0.4-2.8,1.2c-0.5,0.4-1.1,0.6-1.7,0.7l-0.1,0c-0.1,0-0.2,0-0.3,0.1   l-0.1,0c-2.8-0.1-7.3-2.8-7.7-4.6c-0.3-1.4-1-4.2-4.6-4.2l-0.9,0l-0.3,0c-3.6,0-4.3,2.9-4.6,4.2c-0.1,0.3-0.4,0.9-1.3,1.7   c-1.5,1.4-4.3,2.8-6.5,2.9l-0.1,0c-0.2-0.1-0.3-0.1-0.4-0.1C18,9.5,17.3,9.3,17,9.1c-1.1-0.9-2-1.3-3.2-1.3c0,0,0,0,0,0   c-1.5,0.1-2.5,1-4,2.4c-2.1,2-2.2,3.9-0.6,6.5C10,18,9.9,20.2,9,22.4c-1,2.3-2.6,3.9-4.3,4.2C4,26.7,1.5,27.2,1,29.9   c-0.1,0.3-0.1,0.5-0.1,1l0,2.6c0.3,3.2,2.7,3.7,3.8,3.9c2.8,0.6,5,4.4,5,7.4c0,1-0.2,1.8-0.6,2.5c-1.2,2-1.9,4.1,0.5,6.5   c1.6,1.5,2.7,2.5,4.3,2.5c1,0,1.9-0.4,3-1.3c0.4-0.3,1-0.5,1.6-0.6l0.1,0c0.2,0,0.3-0.1,0.4-0.1c2.8,0.1,7.3,2.8,7.7,4.6   c0.3,1.4,1,4.2,4.5,4.2h1.3c3.6,0,4.3-2.8,4.6-4.2c0.4-1.8,4.9-4.5,7.8-4.6c0.1,0,0.3,0.1,0.5,0.1c0.6,0.2,1.2,0.3,1.7,0.7   c1,0.8,1.9,1.2,2.9,1.2c1.6,0,2.6-0.9,4.2-2.4c2.1-2,2.3-3.9,0.6-6.6c-0.8-1.3-0.7-3.4,0.2-5.5c1-2.3,2.6-3.9,4.3-4.3   c2.5-0.5,3.6-1.8,3.8-4.4L63.1,30.4z M58.8,35c-2.5,0.5-4.8,2.7-6.1,5.7c-1.2,2.9-1.2,5.8,0,7.8c1.1,1.8,1,2.4-0.2,3.5   c-1.5,1.4-2,1.7-2.5,1.7c-0.4,0-0.8-0.2-1.3-0.6c-0.9-0.7-1.8-1-2.6-1.2c-0.2-0.1-0.3-0.1-0.4-0.1l-0.4-0.1l-0.2,0   c-3.6,0-9.5,3.3-10.2,6.5c-0.4,1.8-0.8,2.4-2.2,2.4l-0.3,0l-1,0c-1.3,0-1.7-0.5-2.2-2.4c-0.8-3.2-6.6-6.4-10.3-6.5l-0.3,0l-0.2,0.1   c-0.1,0-0.2,0.1-0.4,0.1l-0.1,0c-0.7,0.2-1.7,0.4-2.5,1.1c-0.6,0.5-1,0.7-1.4,0.7c-0.6,0-1.2-0.5-2.6-1.8c-1.2-1.1-1.2-1.7-0.2-3.4   c0.7-1.1,1-2.4,1-3.8c-0.1-4-2.9-8.9-7-9.7c-1.3-0.3-1.7-0.6-1.8-1.6l0-2.5c0-0.3,0-0.4,0.1-0.6c0.2-0.9,0.7-1.2,1.8-1.4   c2.5-0.5,4.7-2.6,6-5.7c1.3-2.9,1.2-5.9,0-7.9c-1.1-1.7-0.9-2.4,0.2-3.5c1.2-1.2,1.9-1.7,2.4-1.7c0.3,0,0.8,0.1,1.6,0.8   c0.8,0.6,1.8,0.9,2.5,1.1c0.1,0,0.2,0.1,0.4,0.1l0.6,0.1l0.1,0c2.8,0,6.2-1.8,8.1-3.5c1.1-1,1.8-2,2-3C29.6,4,30,3.4,31.4,3.4   l0.3,0l0.9,0c1.3,0,1.7,0.5,2.2,2.3c0.8,3.2,6.6,6.5,10.2,6.5l0.1,0l0.9-0.2c0.7-0.2,1.7-0.5,2.6-1.2c0.5-0.4,1-0.6,1.3-0.6   c0.6,0,1.1,0.4,2.6,1.9c1.1,1.1,1.1,1.7,0,3.4c-1.2,2-1.2,5,0.1,7.9c1.3,3,3.6,5.1,6.1,5.6c1.2,0.2,1.7,0.5,1.8,1.6l0,2.4   C60.5,34.4,60.2,34.7,58.8,35z"></path><path fill="#000000" d="M32,13.8C22,13.8,13.8,22,13.8,32c0,10,8.2,18.2,18.2,18.2c10,0,18.2-8.2,18.2-18.2   C50.2,22,42,13.8,32,13.8z M27.3,47c-1-1.5-1.8-3.5-2.4-5.6c1.9-0.4,3.8-0.7,5.9-0.8v7.1C29.6,47.6,28.4,47.4,27.3,47z M30.8,16.3   v6.8c-2-0.1-4-0.3-5.8-0.8c0.6-2.1,1.4-3.9,2.4-5.4C28.4,16.6,29.6,16.4,30.8,16.3z M30.8,30.8h-7.1c0.1-2.1,0.3-4.1,0.7-6   c2,0.5,4.2,0.8,6.4,0.8V30.8z M30.8,33.2v4.9c-2.2,0.1-4.4,0.4-6.4,0.9c-0.4-1.8-0.6-3.8-0.6-5.8H30.8z M33.2,33.2h7.1   c-0.1,2-0.3,4-0.6,5.8c-2.1-0.5-4.2-0.8-6.4-0.9V33.2z M33.2,30.8v-5.2c2.2-0.1,4.4-0.4,6.4-0.8c0.4,1.9,0.6,3.9,0.7,6H33.2z    M39,22.4c-1.9,0.4-3.8,0.7-5.8,0.8v-6.8c1.2,0.1,2.3,0.3,3.4,0.6C37.6,18.5,38.4,20.3,39,22.4z M21.2,30.8h-4.9   c0.2-2.9,1.2-5.6,2.8-7.8c0.9,0.4,1.9,0.8,2.9,1.2C21.6,26.2,21.3,28.5,21.2,30.8z M21.2,33.2c0.1,2.2,0.3,4.4,0.7,6.4   c-1,0.3-2,0.7-3,1.2c-1.5-2.2-2.5-4.8-2.7-7.6H21.2z M33.2,40.6c2,0.1,4,0.3,5.9,0.8c-0.6,2.2-1.4,4.1-2.4,5.6   c-1.1,0.3-2.3,0.6-3.5,0.6V40.6z M42.8,33.2h4.9c-0.2,2.8-1.2,5.4-2.7,7.6c-0.9-0.4-1.9-0.9-3-1.2C42.4,37.6,42.7,35.5,42.8,33.2z    M42.8,30.8c-0.1-2.3-0.3-4.6-0.8-6.7c1-0.3,2-0.7,2.9-1.1c1.6,2.2,2.6,4.9,2.8,7.8H42.8z M43.3,21c-0.6,0.3-1.2,0.5-1.8,0.7   c-0.3-1.1-0.7-2.1-1.1-3.1C41.4,19.3,42.4,20.1,43.3,21z M23.7,18.7c-0.4,1-0.8,2-1.1,3.1c-0.6-0.2-1.3-0.5-1.8-0.7   C21.6,20.1,22.6,19.3,23.7,18.7z M20.6,42.8c0.6-0.3,1.3-0.5,1.9-0.8c0.3,1.2,0.7,2.3,1.1,3.3C22.5,44.6,21.5,43.8,20.6,42.8z    M40.3,45.3c0.4-1,0.8-2.1,1.1-3.3c0.7,0.2,1.3,0.5,1.9,0.8C42.5,43.8,41.5,44.6,40.3,45.3z"></path></g></svg>