<svg xmlns="http://www.w3.org/2000/svg" xmlns:xlink="http://www.w3.org/1999/xlink" version="1.1" x="0px" y="0px" viewBox="7.5 7.5 50 50" enable-background="new 7.5 7.5 50 50" xml:space="preserve"><path d="M53.797,7.835H15.664c-0.892,0-1.617,0.726-1.617,1.618v2.867h-2.911c-0.854,0-1.55,0.695-1.55,1.55v0.787  c0,0.854,0.695,1.549,1.55,1.549h2.911v3.409h-2.911c-0.854,0-1.55,0.695-1.55,1.549v0.788c0,0.854,0.695,1.549,1.55,1.549h2.911  v3.408h-2.911c-0.854,0-1.55,0.695-1.55,1.549v0.787c0,0.854,0.695,1.55,1.55,1.55h2.911v3.408h-2.911  c-0.854,0-1.55,0.695-1.55,1.55v0.787c0,0.854,0.695,1.549,1.55,1.549h2.911v3.409h-2.911c-0.854,0-1.55,0.695-1.55,1.55v0.787  c0,0.854,0.695,1.549,1.55,1.549h2.911v3.409h-2.911c-0.854,0-1.55,0.694-1.55,1.549v0.788c0,0.854,0.695,1.549,1.55,1.549h2.911  v2.868c0,0.892,0.726,1.617,1.617,1.617h38.133c0.892,0,1.617-0.726,1.617-1.617V9.453C55.414,8.561,54.688,7.835,53.797,7.835z   M10.586,14.657V13.87c0-0.303,0.247-0.55,0.55-0.55h6.822c0.303,0,0.549,0.247,0.549,0.55v0.787c0,0.303-0.246,0.549-0.549,0.549  h-6.822C10.833,15.207,10.586,14.96,10.586,14.657z M10.586,21.952v-0.788c0-0.303,0.247-0.549,0.55-0.549h6.822  c0.303,0,0.549,0.247,0.549,0.549v0.788c0,0.303-0.246,0.549-0.549,0.549h-6.822C10.833,22.501,10.586,22.255,10.586,21.952z   M10.586,29.246v-0.787c0-0.303,0.247-0.549,0.55-0.549h6.822c0.303,0,0.549,0.247,0.549,0.549v0.787c0,0.303-0.246,0.55-0.549,0.55  h-6.822C10.833,29.796,10.586,29.549,10.586,29.246z M10.586,36.541v-0.787c0-0.303,0.247-0.55,0.55-0.55h6.822  c0.303,0,0.549,0.247,0.549,0.55v0.787c0,0.303-0.246,0.549-0.549,0.549h-6.822C10.833,37.09,10.586,36.844,10.586,36.541z   M10.586,43.836v-0.787c0-0.303,0.247-0.55,0.55-0.55h6.822c0.303,0,0.549,0.247,0.549,0.55v0.787c0,0.303-0.246,0.549-0.549,0.549  h-6.822C10.833,44.385,10.586,44.139,10.586,43.836z M10.586,51.131v-0.788c0-0.303,0.247-0.549,0.55-0.549h6.822  c0.303,0,0.549,0.246,0.549,0.549v0.788c0,0.303-0.246,0.549-0.549,0.549h-6.822C10.833,51.68,10.586,51.434,10.586,51.131z   M54.414,55.548c0,0.34-0.277,0.617-0.617,0.617H15.664c-0.34,0-0.617-0.277-0.617-0.617V52.68h2.911  c0.854,0,1.549-0.694,1.549-1.549v-0.788c0-0.854-0.695-1.549-1.549-1.549h-2.911v-3.409h2.911c0.854,0,1.549-0.694,1.549-1.549  v-0.787c0-0.854-0.695-1.55-1.549-1.55h-2.911V38.09h2.911c0.854,0,1.549-0.694,1.549-1.549v-0.787c0-0.854-0.695-1.55-1.549-1.55  h-2.911v-3.408h2.911c0.854,0,1.549-0.695,1.549-1.55v-0.787c0-0.854-0.695-1.549-1.549-1.549h-2.911v-3.408h2.911  c0.854,0,1.549-0.695,1.549-1.549v-0.788c0-0.854-0.695-1.549-1.549-1.549h-2.911v-3.409h2.911c0.854,0,1.549-0.695,1.549-1.549  V13.87c0-0.854-0.695-1.55-1.549-1.55h-2.911V9.453c0-0.341,0.277-0.618,0.617-0.618h38.133c0.34,0,0.617,0.277,0.617,0.618V55.548z  "></path><path d="M45.619,12.32H26.53c-0.854,0-1.55,0.695-1.55,1.55v11.021c0,0.854,0.695,1.55,1.55,1.55h19.089  c0.854,0,1.55-0.695,1.55-1.55V13.87C47.169,13.016,46.474,12.32,45.619,12.32z M26.53,13.32h19.089c0.303,0,0.55,0.247,0.55,0.55  v7.188H25.98V13.87C25.98,13.567,26.227,13.32,26.53,13.32z M45.619,25.44H26.53c-0.303,0-0.55-0.247-0.55-0.55v-2.832h20.188v2.832  C46.169,25.194,45.922,25.44,45.619,25.44z"></path></svg>